<svg xmlns="http://www.w3.org/2000/svg" viewBox="0 0 64 64" width="512" height="512" role="img" aria-label="Voice Studio"><style>.a{stop-color:#6a58ee}.b{stop-color:#1596bd}@media (prefers-color-scheme:dark){.a{stop-color:#8f7cff}.b{stop-color:#6ee7ff}}</style><defs><linearGradient id="g" gradientUnits="userSpaceOnUse" x1="0" y1="8" x2="64" y2="56"><stop offset="0.1" class="a"/><stop offset="0.95" class="b"/></linearGradient></defs><path d="M4 8.0A4.0 4.0 0 0 1 12 8.0V26.0A4.0 4.0 0 0 1 4 26.0ZM16 19.0A4.0 4.0 0 0 1 24 19.0V41.0A4.0 4.0 0 0 1 16 41.0ZM28 36.0A4.0 4.0 0 0 1 36 36.0V56.0A4.0 4.0 0 0 1 28 56.0ZM40 25.0A4.0 4.0 0 0 1 48 25.0V41.0A4.0 4.0 0 0 1 40 41.0ZM52 8.0A4.0 4.0 0 0 1 60 8.0V26.0A4.0 4.0 0 0 1 52 26.0Z" fill="url(#g)"/></svg>
